<?xml version="1.0" encoding="UTF-8" standalone="no"?>
<svg width="375px" height="1098px" viewBox="0 0 375 1098" version="1.1" xmlns="http://www.w3.org/2000/svg" xmlns:xlink="http://www.w3.org/1999/xlink" xmlns:sketch="http://www.bohemiancoding.com/sketch/ns">
    <title>puppie</title>
    <description>Created with Sketch (http://www.bohemiancoding.com/sketch)</description>
    <defs></defs>
    <g id="Page-1" stroke="none" stroke-width="1" fill="none" fill-rule="evenodd" sketch:type="MSPage">
        <path d="M142.875827,9.34437914 C144.734994,5.94034626 154.044627,5.48910275 157.937373,7.05822551 C175.644325,14.1956977 192.009403,52.2233295 186.711918,79.6090984 C183.183697,97.8485094 200.361504,128.173978 200.361504,128.173978 C200.361504,128.173978 190.751374,134.2375 182.869572,137.837508 C182.944369,137.493756 182.927237,137.124663 182.791465,136.717834 C181.812555,133.784615 182.83214,132.307952 182.83214,132.307952 C182.83214,132.307952 194.256778,122.463604 192.885789,121.571305 C191.5148,120.679007 184.981406,114.128916 179.828811,103.855681 C174.488726,94.8253238 187.718093,78.103976 184.889284,63.8644722 C184.120746,59.9958463 182.382183,53.5408743 179.358506,47.0189453 C179.675518,44.889182 179.616736,42.7811411 179.091566,40.6956062 C176.450896,30.2090592 161.244284,17.4236819 142.875827,9.34437914 L142.875827,9.34437914 Z" id="Oval-20" stroke="#979797" opacity="0.604190341" fill="#D8D8D8" sketch:type="MSShapeGroup"></path>
        <g id="Head" sketch:type="MSLayerGroup" transform="translate(44.000000, 1.000000)" stroke="#979797" fill="#D8D8D8">
            <path d="M60.9718033,203.554784 C67.3814249,203.554784 71.4633927,209.536289 72.3074571,205.73635 C72.9606479,202.795715 75.5621634,189.672241 83.1399363,175.225541 C90.7177102,160.778842 109,165.775722 109,165.775722 C109,165.775722 93.67999,155.996689 75.4256181,145.995342 C57.1712462,135.993996 49.6192508,110 49.6192508,110 C49.6192508,110 46.7836359,129.567195 44.8787096,140.467743 C44.0857728,145.00516 40.6885586,157.899141 35.5687159,167.471594 C28.3888106,180.895701 19,195.582001 19,195.582001 C19,195.582001 48.5484019,203.554784 60.9718033,203.554784 Z" id="neck" opacity="0.523366477" sketch:type="MSShapeGroup"></path>
            <path d="M9.44166418,83.8336976 C7.50369974,72.355883 6.89504057,59.4383277 25.2702221,32.2776549 C43.6454036,5.11698211 75.4949799,11.5403508 86.0180855,13.7077748 C137.16417,24.2422363 139.034189,53.5264003 140.889284,62.8644722 C143.718093,77.103976 130.488726,93.8253238 135.828811,102.855681 C140.981406,113.128916 147.5148,119.679007 148.885789,120.571305 C150.256778,121.463604 138.83214,131.307952 138.83214,131.307952 C138.83214,131.307952 137.812555,132.784615 138.791465,135.717834 C139.770375,138.651054 134.581943,139.622651 133.237966,143.27796 C132.303846,145.818549 134.385174,145.382876 133.634841,148.559752 C133.035258,151.098363 130.339795,150.620057 129.074036,153.681282 C127.609173,157.224038 129.205812,165.209078 128.077734,166.936054 C126.013953,170.095499 123.06941,170.522765 118.688117,169.515373 C114.306824,168.507981 105.502281,163.732933 100.583256,160.614236 C97.6930185,158.781805 70.2774189,150.747832 61.4765449,137.767163 C57.996362,132.634139 54.2408954,126.39388 50.9685799,119.998631 C50.6019141,124.976343 13.0168342,105.008045 9.44166418,83.8336976 Z" id="skull" opacity="0.559801136" sketch:type="MSShapeGroup"></path>
            <path d="M131.645297,73.8328751 C131.645297,73.8328751 122.667948,73.6373787 115.37179,75.0945522 C102.202549,77.7246847 85.4898184,83.1285189 85.4898184,83.1285189 C85.4898184,83.1285189 104.776766,78.1628317 118.389451,76.3307563 C126.278328,75.2690246 132.018672,76.7143214 132.018672,76.7143214 L131.645297,73.8328751 Z" id="eyebrow" opacity="0.586221591" sketch:type="MSShapeGroup"></path>
            <path d="M131,142.052229 L131,140 L114,144 C114,144 122.591901,142.052229 131,142.052229 Z" id="Mouth" opacity="0.586221591" sketch:type="MSShapeGroup" transform="translate(122.500000, 142.000000) scale(1, -1) translate(-122.500000, -142.000000) "></path>
            <g id="Eye" transform="translate(103.000000, 86.000000)" sketch:type="MSShapeGroup">
                <path d="M22,3.26246695 C21.9878413,3.12836059 21.9744857,2.99453532 21.9599425,2.86100321 C21.66119,2.48640696 19.7066868,0.216467469 16.9960549,1.28210254 C10.4138359,3.86978102 -0.269327555,11.8944436 0.00518792635,13.6261259 C0.263555134,15.2559423 7.04113795,18.0221276 12.2548281,19.3369062 C13.9609017,19.7671406 16.2914838,19.9712708 17.3794088,20 C19.7455592,17.2640573 20.6853422,14.0192849 21.5254699,10.3228709 C21.9450413,7.35213276 21.9955038,4.27985482 22,3.26246695 Z" id="Eyeball" opacity="0.353053977"></path>
                <path d="M21.9535643,13.533788 C22.0062177,12.6600514 22.0168065,11.7274965 21.9712831,10.7615496 C21.7828895,6.76407951 20.5933369,2.15154694 20.593337,2.15154686 C20.593337,2.15154681 17.8372984,-0.0884441425 15.109309,1.67982677 C13.846488,2.49838189 12.4596291,3.58153759 11.0606986,4.79867811 C10.9635507,5.99719882 10.980828,7.27207074 11.1283654,8.58626943 C11.8084246,14.6439366 15.5193984,19.8148735 18.5343264,20 C18.9131872,19.9516286 19.2518424,19.8916419 19.5423689,19.8193968 C20.954757,19.1030324 21.6650861,16.3737675 21.9535643,13.533788 Z" id="Iris" opacity="0.627485795" transform="translate(16.500000, 10.500000) rotate(13.000000) translate(-16.500000, -10.500000) "></path>
                <path d="M20.8537283,8.66205096 C20.3441332,12.9079646 18.6533671,16.1894674 17.0772964,15.991493 C15.5012257,15.7935185 14.6366765,12.1910359 15.1462717,7.94512219 C15.5354942,4.70214545 16.6137784,2.02177872 17.8037224,1.02466548 C18.6676393,0.92220055 19.4262436,1.15128973 20.0416854,1.48406545 C20.8686192,2.8302219 21.2240922,5.57620305 20.8537283,8.66205096 Z" id="Pupil"></path>
            </g>
            <path d="M117.347476,106.237087 C117.335778,106.225449 117.301385,106.239612 117.254811,106.269262 C117.076729,106.181054 116.892158,106.093946 116.700869,106.008191 C116.664917,105.942298 115.980299,106.294822 116.000436,106.320605 C116.286808,106.423861 116.560339,106.531073 116.821552,106.641424 C116.784593,106.680528 116.763692,106.707458 116.769552,106.711713 C116.863537,106.720287 116.956477,106.729517 117.04838,106.739378 C121.057056,108.508742 122.03614,111 122.03614,111 C122.03614,111 121.548597,108.881049 118.490039,106.958542 C122.450202,107.748677 124,109.707744 124,109.707744 C124,109.707744 122.473769,107.087007 117.347476,106.237087 Z" id="lower-lashes" opacity="0.648863636" sketch:type="MSShapeGroup"></path>
            <path d="M122.470975,86.8735278 C130.965697,81.6736684 131.703331,75.5076569 131.703331,75.5076569 C131.703331,75.5076569 130.255889,80.2161281 123.504546,84.4653585 C125.95839,82.1291828 126.643733,80.1128084 126.643733,80.1128084 C126.643733,80.1128084 124.974556,83.4318005 119.945084,86.1637557 C118.067952,86.4475709 115.945365,87.346745 113.82055,88.5328178 C107.471469,92.0964431 101,100 101,100 C101,100 108.981726,92.5074982 114.554869,89.4769461 C116.975483,88.1606697 118.359798,87.8693879 119.069646,87.7520526 C120.904352,87.4487822 122.738362,88.92774 123.140599,89.5416094 C123.162116,89.5848617 123.308277,89.8235128 123.308277,89.8235128 C123.308277,89.8235128 123.319081,89.7680361 123.327582,89.6702609 C128.066109,90.9611409 130.560987,89.1223909 130.560987,89.1223909 C130.560987,89.1223909 127.980828,90.5276424 123.699892,89.1996382 C131.281329,89.2119386 134.009878,85.603767 134.009878,85.603767 C134.009878,85.603767 131.138622,88.4235268 124.680671,88.3890057 C136.319357,83.1600889 139,75 139,75 C139,75 134.991785,82.7023306 122.470975,86.8735278 Z M184.026343,93 C184.062467,93.0246668 184.099827,93.0498558 184.138017,93.0752826 C184.09296,93.0558045 184.046961,93.0366969 184,93.017979 C184.008794,93.0119869 184.017575,93.0059939 184.026343,93 Z" id="lashes" opacity="0.423508523" sketch:type="MSShapeGroup"></path>
            <path d="M92.7267519,143.255674 C93.9311404,142.91194 95.0952201,142.557516 96.2143053,142.198367 L96.2143053,142.198367 C84.7854826,116.508406 84.741887,95.4152798 84.741887,95.4152798 C84.741887,95.4152798 87.0459428,127.138022 102.562815,139.952897 C108.504273,137.652834 112.122875,135.678073 112.122875,135.678073 C112.122875,135.678073 101.409006,124.035161 101.409006,106.011732 C101.409006,82.2659195 140.18495,59.9222852 135.091566,39.6956062 C129.998183,19.4689272 78.1550658,-9.31021192 47.0450348,3.62466733 C15.9350028,16.5595437 0.477493106,50.0594292 0.473022699,73.2672043 C0.463473704,122.844469 39.7576202,145.205221 62.6421749,146.824842 C71.5130426,147.452664 80.1509311,146.321375 87.6612655,144.569748 C77.7814386,120.551788 77.741887,101.41528 77.741887,101.41528 C77.741887,101.41528 79.7587688,129.184148 92.7267519,143.255674 Z" id="Hair" opacity="0.879545455" sketch:type="MSShapeGroup"></path>
        </g>
        <g id="Body" sketch:type="MSLayerGroup" transform="translate(181.500000, 637.000000) scale(-1, 1) translate(-181.500000, -637.000000) translate(-19.000000, 172.000000)" stroke="#979797" fill="#D8D8D8">
            <path d="M328.020576,225 C357.321347,225.000023 358.916489,143.110037 361.745742,75.1894833 C364.574995,7.26893013 343.230754,11.0376024 325.66784,11.0376024 C308.104926,11.0376024 296.568664,39.7392317 306.905336,106.558896 C317.242007,173.378561 298.719805,224.999985 328.020576,225 Z" id="Oval-3" opacity="0.563707386" sketch:type="MSShapeGroup" transform="translate(332.500000, 118.000000) rotate(-23.000000) translate(-332.500000, -118.000000) "></path>
            <ellipse id="Oval-10" opacity="0.600497159" sketch:type="MSShapeGroup" cx="215.5" cy="917" rx="20.5" ry="8"></ellipse>
            <path d="M264.821505,868 C283.620574,868 291,810.859691 291,743.236056 C291,675.612421 270.716929,634.873443 259.120345,609.651201 C247.523761,584.428955 231.111274,581.361018 231.111274,612.979775 C231.111275,644.598532 229.691444,696.901727 236.995267,734.293285 C255.26399,827.819108 246.022435,868 264.821505,868 Z" id="Oval-7" opacity="0.516335227" sketch:type="MSShapeGroup" transform="translate(261.000000, 729.000000) rotate(-12.000000) translate(-261.000000, -729.000000) "></path>
            <path d="M124.821505,623.579581 C143.620574,623.579581 151,566.439273 151,498.815638 C151,431.192003 130.716929,390.453024 119.120345,365.230783 C107.523761,340.008537 91.1112737,336.940599 91.1112741,368.559356 C91.1112746,400.178113 89.6914441,452.481308 96.9952669,489.872866 C115.26399,583.398689 106.022435,623.579581 124.821505,623.579581 Z" id="Oval-7" opacity="0.516335227" sketch:type="MSShapeGroup" transform="translate(121.000000, 484.579581) rotate(-42.000000) translate(-121.000000, -484.579581) "></path>
            <path d="M264.509108,647 C287.186671,647 292.959873,555.079331 292.959873,476.101784 C292.959873,437.697538 311.16563,393.735617 306.114443,352.913373 C300.777968,309.785506 300.014928,312.847143 271.596718,303.646066 C252.854964,297.577971 229.154493,299.927652 221.32403,332.456949 C210.571174,377.126453 215.576524,433.358817 221.324029,476.101789 C231.256993,549.971118 241.831545,647 264.509108,647 Z" id="Oval-6" opacity="0.285085227" sketch:type="MSShapeGroup" transform="translate(261.000000, 474.000000) rotate(16.000000) translate(-261.000000, -474.000000) "></path>
            <path d="M180.970966,545.244181 C203.402033,545.244181 209.112483,453.323513 209.112483,374.345966 C209.112483,335.94172 227.120351,291.979798 222.124069,251.157554 C216.845599,208.029687 216.090852,211.091324 187.981536,201.890247 C169.443497,195.822152 146.00064,198.171833 138.25529,230.70113 C127.619314,275.370634 132.570258,331.602998 138.25529,374.34597 C148.080287,448.215299 158.539898,545.244181 180.970966,545.244181 Z" id="Oval-6" opacity="0.285085227" sketch:type="MSShapeGroup" transform="translate(178.000000, 372.244181) rotate(81.000000) translate(-178.000000, -372.244181) "></path>
            <path d="M301.892919,359.721837 C310.000419,378.618201 343.544676,361.96075 346.603354,341.791876 C349.332993,323.792676 337.07986,288.960987 337.07986,262.617508 C337.07986,206.755036 349.616714,176.392541 334.860941,173.194789 C320.105169,169.997037 306.617434,206.441215 301.892919,262.617506 C297.168405,318.793799 293.785419,340.825473 301.892919,359.721837 Z" id="Oval-8" opacity="0.637215909" sketch:type="MSShapeGroup" transform="translate(322.000000, 271.000000) rotate(-152.000000) translate(-322.000000, -271.000000) "></path>
            <path d="M271.993014,394 C282.143386,393.999994 299.290197,369.148847 295.449075,365.91155 C285.787998,357.769194 285.862707,344.056202 278.534654,335.605337 C271.005456,326.92251 242.614298,314.680188 237.560182,320.523973 C225.761863,334.165697 225.542938,361.724141 228.794735,365.911552 C233.439524,371.892748 261.842642,394.000006 271.993014,394 Z" id="Oval-13" opacity="0.448082386" sketch:type="MSShapeGroup" transform="translate(262.000000, 356.500000) rotate(-93.000000) translate(-262.000000, -356.500000) "></path>
            <g id="corp" transform="translate(197.000000, 14.000000)" sketch:type="MSShapeGroup">
                <path d="M85.8506116,400 C122.550921,400 169.610879,351.931924 152.302397,303.504069 C134.993914,255.076214 122.550921,207.008137 85.8506116,207.008137 C49.1503021,207.008137 37.0568579,204.878505 37.0568552,291.720764 C37.0568536,345.013998 49.1503021,400 85.8506116,400 Z" id="Oval-5" opacity="0.523011364"></path>
                <path d="M31.3805594,132 C51.9245656,132 61,116.574128 61,91.3830313 C61,66.1919348 50.8905416,34 50.8905416,34 C50.8905416,34 50.7102765,42.8734199 31.3805589,62.174415 C17.2480533,76.2859239 -0.000177293071,86.3874871 0,91.3830313 C0.000894450717,116.574128 10.8365532,132 31.3805594,132 Z" id="Oval-14" opacity="0.325355114"></path>
                <path d="M82.0003739,272 C115.012946,272 147.999999,146.143408 148,74.6758262 C148,51.5855484 126.082271,4.78064741 111.959641,1.34948003 C97.8370105,-2.08168979 96.334523,3.45795635 85.1129141,5.52088519 C82.9552196,5.91754637 67.4322374,12.3629413 57.9424973,20.5742823 C48.7021168,28.569858 52.2531208,47.9990531 44.3258781,69.8349882 C38.9817489,84.5556241 29.8035546,122.343341 29.236115,150.553555 C28.96184,164.189115 33.3124266,172.917197 39.1599228,189.30888 C45.0074191,205.700564 48.9878022,272 82.0003739,272 Z" id="Oval-4" opacity="0.441761364"></path>
            </g>
            <path d="M268.567766,898.397229 C296.809676,898.397229 310.892301,921.935261 318.942125,893.310883 C326.991945,864.686504 302.696341,821.392951 272.527773,854.338247 C261.042945,866.880144 202.5,883.53564 202.5,898.39723 C202.5,913.258821 240.325856,898.397229 268.567766,898.397229 Z" id="Oval-9" opacity="0.521590909" sketch:type="MSShapeGroup" transform="translate(261.500000, 876.000000) rotate(-25.000000) translate(-261.500000, -876.000000) "></path>
            <g id="Right-foot" transform="translate(126.000000, 543.000000)" sketch:type="MSShapeGroup">
                <path d="M70.0677657,88.8972295 C98.3096756,88.8972295 112.392301,112.435261 120.442125,83.8108829 C128.491945,55.1865043 104.196341,11.892951 74.0277731,44.8382468 C62.542945,57.380144 4,74.0356399 4,88.8972302 C4,103.758821 41.8258558,88.8972295 70.0677657,88.8972295 Z" id="Oval-9" opacity="0.521590909" transform="translate(63.000000, 66.500000) rotate(-50.000000) translate(-63.000000, -66.500000) "></path>
                <ellipse id="Oval-10" opacity="0.600497159" transform="translate(39.500000, 125.000000) rotate(-50.000000) translate(-39.500000, -125.000000) " cx="39.5" cy="125" rx="20.5" ry="8"></ellipse>
            </g>
            <g id="Right-arm" transform="translate(87.000000, 0.000000)" sketch:type="MSShapeGroup">
                <path d="M197.020576,214 C226.321347,214.000023 227.916489,132.110037 230.745742,64.1894833 C233.574995,-3.73106987 212.230754,0.0376024124 194.66784,0.0376024124 C177.104926,0.0376024124 165.568664,28.7392317 175.905336,95.558896 C186.242007,162.378561 167.719805,213.999985 197.020576,214 Z" id="Oval-3" opacity="0.563707386"></path>
                <path d="M105.892919,263.721837 C114.000419,282.618201 147.544676,265.96075 150.603354,245.791876 C153.332993,227.792676 141.07986,192.960987 141.07986,166.617508 C141.07986,110.755036 153.616714,80.3925414 138.860941,77.1947887 C124.105169,73.9970366 110.617434,110.441215 105.892919,166.617506 C101.168405,222.793799 97.7854194,244.825473 105.892919,263.721837 Z" id="Oval-8" opacity="0.637215909" transform="translate(126.000000, 175.000000) rotate(-61.000000) translate(-126.000000, -175.000000) "></path>
                <path d="M44.9930143,144 C55.1433863,143.999994 72.2901968,119.148847 68.4490753,115.91155 C58.7879979,107.769194 58.8627072,94.0562022 51.5346539,85.6053373 C44.0054558,76.9225097 15.6142977,64.6801878 10.560182,70.5239731 C-1.23813695,84.1656966 -1.45706245,111.724141 1.79473478,115.911552 C6.43952362,121.892748 34.8426423,144.000006 44.9930143,144 Z" id="Oval-13" opacity="0.448082386"></path>
            </g>
        </g>
    </g>
</svg>