<?xml version="1.0" encoding="UTF-8" standalone="no"?>
<svg width="365px" height="1070px" viewBox="0 0 365 1070" version="1.1" xmlns="http://www.w3.org/2000/svg" xmlns:xlink="http://www.w3.org/1999/xlink" xmlns:sketch="http://www.bohemiancoding.com/sketch/ns">
    <title>puppie</title>
    <description>Created with Sketch (http://www.bohemiancoding.com/sketch)</description>
    <defs></defs>
    <g id="Page-1" stroke="none" stroke-width="1" fill="none" fill-rule="evenodd" sketch:type="MSPage">
        <g id="Head" sketch:type="MSLayerGroup" transform="translate(41.000000, 0.000000)">
            <path d="M60.9718033,203.554784 C67.3814249,203.554784 71.4633927,209.536289 72.3074571,205.73635 C72.9606479,202.795715 75.5621634,189.672241 83.1399363,175.225541 C90.7177102,160.778842 109,165.775722 109,165.775722 C109,165.775722 93.67999,155.996689 75.4256181,145.995342 C57.1712462,135.993996 49.6192508,110 49.6192508,110 C49.6192508,110 46.7836359,129.567195 44.8787096,140.467743 C44.0857728,145.00516 40.6885586,157.899141 35.5687159,167.471594 C28.3888106,180.895701 19,195.582001 19,195.582001 C19,195.582001 48.5484019,203.554784 60.9718033,203.554784 Z" id="neck" stroke="#979797" opacity="0.523366477" fill="#D8D8D8" sketch:type="MSShapeGroup"></path>
            <path d="M9.44166418,83.8336976 C7.50369974,72.355883 6.89504057,59.4383277 25.2702221,32.2776549 C43.6454036,5.11698211 75.4949799,11.5403508 86.0180855,13.7077748 C137.16417,24.2422363 139.034189,53.5264003 140.889284,62.8644722 C143.718093,77.103976 130.488726,93.8253238 135.828811,102.855681 C140.981406,113.128916 147.5148,119.679007 148.885789,120.571305 C150.256778,121.463604 138.83214,131.307952 138.83214,131.307952 C138.83214,131.307952 137.812555,132.784615 138.791465,135.717834 C139.770375,138.651054 134.581943,139.622651 133.237966,143.27796 C132.303846,145.818549 134.385174,145.382876 133.634841,148.559752 C133.035258,151.098363 130.339795,150.620057 129.074036,153.681282 C127.609173,157.224038 129.205812,165.209078 128.077734,166.936054 C126.013953,170.095499 123.06941,170.522765 118.688117,169.515373 C114.306824,168.507981 105.502281,163.732933 100.583256,160.614236 C97.6930185,158.781805 70.2774189,150.747832 61.4765449,137.767163 C57.996362,132.634139 54.2408954,126.39388 50.9685799,119.998631 C50.6019141,124.976343 13.0168342,105.008045 9.44166418,83.8336976 Z" id="skull" stroke="#979797" opacity="0.559801136" fill="#D8D8D8" sketch:type="MSShapeGroup"></path>
            <path d="M131.645297,73.8328751 C131.645297,73.8328751 122.667948,73.6373787 115.37179,75.0945522 C102.202549,77.7246847 85.4898184,83.1285189 85.4898184,83.1285189 C85.4898184,83.1285189 104.776766,78.1628317 118.389451,76.3307563 C126.278328,75.2690246 132.018672,76.7143214 132.018672,76.7143214 L131.645297,73.8328751 Z" id="eyebrow" opacity="0.586221591" fill="#232323" sketch:type="MSShapeGroup"></path>
            <path d="M132.387316,142.5 L131,139 L114.663506,143.779559 C114.663506,143.779559 119.648043,143.779559 132.387316,142.5 Z" id="Mouth" opacity="0.586221591" fill="#717171" sketch:type="MSShapeGroup" transform="translate(123.500000, 141.500000) scale(1, -1) translate(-123.500000, -141.500000) "></path>
            <g id="hair" fill="#2C2C2C" sketch:type="MSShapeGroup">
                <path d="M92.7267519,143.255674 C93.9311404,142.91194 95.0952201,142.557516 96.2143053,142.198367 L96.2143053,142.198367 C84.7854826,116.508406 84.741887,95.4152798 84.741887,95.4152798 C84.741887,95.4152798 87.0459428,127.138022 102.562815,139.952897 C108.504273,137.652834 112.122875,135.678073 112.122875,135.678073 C112.122875,135.678073 101.409006,124.035161 101.409006,106.011732 C101.409006,82.2659195 140.18495,59.9222852 135.091566,39.6956062 C129.998183,19.4689272 78.1550658,-9.31021192 47.0450348,3.62466733 C15.9350028,16.5595437 0.477493106,50.0594292 0.473022699,73.2672043 C0.463473704,122.844469 39.7576202,145.205221 62.6421749,146.824842 C71.5130426,147.452664 80.1509311,146.321375 87.6612655,144.569748 C77.7814386,120.551788 77.741887,101.41528 77.741887,101.41528 C77.741887,101.41528 79.7587688,129.184148 92.7267519,143.255674 Z" id="front-hair" opacity="0.879545455"></path>
                <path d="M98.8758272,8.34437914 C100.734994,4.94034626 110.044627,4.48910275 113.937373,6.05822551 C131.644325,13.1956977 148.009403,51.2233295 142.711918,78.6090984 C139.183697,96.8485094 156.361504,127.173978 156.361504,127.173978 C156.361504,127.173978 146.751374,133.2375 138.869572,136.837508 C138.944369,136.493756 138.927237,136.124663 138.791465,135.717834 C137.812555,132.784615 138.83214,131.307952 138.83214,131.307952 C138.83214,131.307952 150.256778,121.463604 148.885789,120.571305 C147.5148,119.679007 140.981406,113.128916 135.828811,102.855681 C130.488726,93.8253238 143.718093,77.103976 140.889284,62.8644722 C140.120746,58.9958463 138.382183,52.5408743 135.358506,46.0189453 C135.675518,43.889182 135.616736,41.7811411 135.091566,39.6956062 C132.450896,29.2090592 117.244284,16.4236819 98.8758272,8.34437914 Z" id="back-hair" opacity="0.879261364"></path>
            </g>
            <g id="Eye" transform="translate(103.000000, 87.000000)" sketch:type="MSShapeGroup">
                <path d="M22,2.26246695 C21.9878413,2.12836059 21.9744857,1.99453532 21.9599425,1.86100321 C21.66119,1.48640696 19.7066868,-0.783532531 16.9960549,0.282102537 C10.4138359,2.86978102 -0.269327555,10.8944436 0.00518792635,12.6261259 C0.263555134,14.2559423 7.04113795,17.0221276 12.2548281,18.3369062 C13.9609017,18.7671406 16.2914838,18.9712708 17.3794088,19 C19.7455592,16.2640573 20.6853422,13.0192849 21.5254699,9.32287091 C21.9450413,6.35213276 21.9955038,3.27985482 22,2.26246695 Z" id="opening" opacity="0.935511364" fill="#FFFFFF"></path>
                <path d="M21.7722186,10.985617 C22.4878886,7.04822246 22.3664183,2.2863177 22.3664184,2.28631764 C22.3664184,2.28631761 20.1849052,-0.516236323 17.1290596,0.593049831 C15.7144698,1.10655253 14.119499,1.84997164 12.4826259,2.72122604 C12.1183594,3.86717522 11.8484101,5.1132588 11.6965358,6.42696336 C10.9964865,12.4823529 13.4491406,18.3555466 16.3451517,19.2141395 C16.7251836,19.252233 17.0686532,19.2699645 17.367985,19.2649253 C18.9053206,18.8846395 20.2113951,16.3851147 21.131336,13.6828172 C21.3791878,12.8433189 21.5992845,11.9370473 21.7722186,10.985617 Z" id="Iris" stroke="#636363" opacity="0.627485795" fill="#676464"></path>
                <path d="M21.8293497,8.17285436 C21.234822,12.7018289 19.2622616,16.2020985 17.4235124,15.9909258 C15.5847633,15.7797531 14.5761226,11.9371049 15.1706503,7.40813034 C15.6247432,3.94895514 16.8827415,1.08989731 18.2710094,0.0263098466 C19.2789125,-0.0829860802 20.1639509,0.161375713 20.8819663,0.516336485 C21.8467224,1.95223669 22.2614409,4.88128326 21.8293497,8.17285436 Z" id="Pupil" fill="#555353"></path>
            </g>
            <g id="lashes" transform="translate(103.000000, 75.000000)" sketch:type="MSShapeGroup">
                <path d="M15.0212138,31.3793384 C15.0036672,31.3607184 14.9520778,31.3833792 14.8822158,31.4308189 C14.615093,31.2896871 14.3382367,31.1503135 14.0513029,31.013106 C13.9973756,30.9076769 12.9704488,31.4717147 13.0006533,31.5129687 C13.4302115,31.6781777 13.8405087,31.849717 14.2323276,32.0262785 C14.1768893,32.0888448 14.1455382,32.1319322 14.1543284,32.1387416 C14.295306,32.1524591 14.4347161,32.1672275 14.5725696,32.1830047 C20.5855841,35.0139864 22.0542103,39 22.0542103,39 C22.0542103,39 21.3228961,35.6096778 16.7350585,32.5336678 C22.6753037,33.797883 25,36.9323909 25,36.9323909 C25,36.9323909 22.7106533,32.7392113 15.0212138,31.3793384 Z" id="lower-lashes" stroke="#979797" opacity="0.605255682" fill="#000000"></path>
                <path d="M20.6010265,11.8735278 C29.5428391,6.67366838 30.0756317,1.04699663 30.319296,0.507656934 C30.5629604,-0.0316827579 28.7956729,5.21612808 21.6889957,9.46535855 C24.2719896,7.12918278 24.9934027,5.1128084 24.9934027,5.1128084 C24.9934027,5.1128084 23.2363745,8.43180046 17.9421938,11.1637557 C15.9662649,11.4475709 13.7319627,12.346745 11.4953159,13.5328178 C4.81207269,17.0964431 -0.120975273,22.9508209 -0.120975479,24.7221928 C-0.120975598,26.4935646 6.64283814,17.9603462 12.3559815,15.1549301 C15.2646203,13.7266546 15.036292,13.6577165 17.9421946,13.0207634 C19.821327,12.608871 20.8824863,13.92774 21.3058937,14.5416094 C21.3285436,14.5848617 21.482397,14.8235128 21.482397,14.8235128 C21.482397,14.8235128 21.885674,15.75965 21.8946228,15.6618748 C26.8825461,16.9527548 30.8122215,14.0019245 30.8122215,14.0019245 C30.8122215,14.0019245 26.400872,15.5276424 21.894623,14.1996382 C29.8750832,14.2119386 32.1321907,11.1637554 32.1321907,11.1637554 C32.1321907,11.1637554 29.7248649,13.4235268 22.9270224,13.3890057 C35.1782705,8.16008893 38,0 38,0 C38,0 33.7808259,7.70233057 20.6010265,11.8735278 Z M81.0263426,18 C81.062467,18.0246668 81.0998268,18.0498558 81.1380173,18.0752826 C81.0929604,18.0558045 81.0469611,18.0366969 81,18.017979 C81.0087939,18.0119869 81.0175747,18.0059939 81.0263426,18 Z" opacity="0.783025568" fill="#4A4848"></path>
            </g>
        </g>
        <g id="Body" sketch:type="MSLayerGroup" transform="translate(176.500000, 626.000000) scale(-1, 1) translate(-176.500000, -626.000000) translate(-18.000000, 179.000000)" stroke="#979797" fill="#EBEBEB" opacity="0.810298295">
            <g id="Left-Leg" transform="translate(164.000000, 278.000000)" sketch:type="MSShapeGroup">
                <ellipse id="Oval-10" cx="45" cy="604" rx="20" ry="8"></ellipse>
                <path d="M95.8281804,585.177315 C123.112737,585.177315 136.717986,607.991099 144.494934,580.247471 C152.271879,552.503843 128.799855,510.542399 99.6539503,542.473993 C88.5584384,554.629986 32,570.773005 32,585.177315 C32,599.581626 68.5436234,585.177315 95.8281804,585.177315 Z" id="Oval-9" transform="translate(89.000000, 563.500000) rotate(-25.000000) translate(-89.000000, -563.500000) "></path>
                <path d="M92.694121,556 C110.866555,556 118,500.504017 118,434.826386 C118,369.148755 98.3930318,329.582121 87.183,305.085699 C75.9729688,280.589273 60.1075646,277.609622 60.1075649,308.318487 C60.1075654,339.027351 58.7350626,389.825418 65.7954246,426.14096 C83.4551905,516.975392 74.5216875,556 92.694121,556 Z" id="Oval-7" transform="translate(89.000000, 421.000000) rotate(-12.000000) translate(-89.000000, -421.000000) "></path>
                <path d="M92.8946806,342 C114.832758,342 120.417703,252.735998 120.417703,176.041039 C120.417703,138.746743 138.029794,96.0553966 133.14332,56.4129864 C127.98086,14.5315896 127.242702,17.5047397 99.7511729,8.56959007 C81.6205626,2.67687328 58.6929336,4.95864452 51.1178115,36.5477885 C40.7155925,79.9262662 45.5577245,134.533418 51.1178111,176.041043 C60.7268739,247.77542 70.9566036,342 92.8946806,342 Z" id="Oval-6" transform="translate(89.500000, 174.000000) rotate(16.000000) translate(-89.500000, -174.000000) "></path>
            </g>
            <g id="Left-arm" transform="translate(216.000000, 0.000000)" sketch:type="MSShapeGroup">
                <path d="M102.172421,210 C130.479945,210.000022 132.021015,130.78868 134.754361,65.0898273 C137.487707,-0.609025525 116.866999,3.03637243 99.8994385,3.03637243 C82.9318776,3.03637243 71.7866757,30.7991634 81.7729517,95.4331377 C91.7592276,160.067113 73.864896,209.999985 102.172421,210 Z" id="Oval-3" transform="translate(106.500000, 106.500000) rotate(-23.000000) translate(-106.500000, -106.500000) "></path>
                <path d="M76.7950607,340.97655 C84.7404103,359.291488 117.613783,343.146573 120.611287,323.59828 C123.286333,306.152901 111.278263,272.392956 111.278263,246.860046 C111.278263,192.716419 123.564379,163.288156 109.103723,160.188795 C94.6430658,157.089435 81.4250855,192.412254 76.7950607,246.860045 C72.1650368,301.307836 68.849711,322.661613 76.7950607,340.97655 Z" id="Oval-8" transform="translate(96.500000, 255.000000) rotate(-152.000000) translate(-96.500000, -255.000000) "></path>
                <path d="M47.688869,374 C57.5450272,373.999994 74.1948288,349.811545 70.4650442,346.660576 C61.0839979,338.735349 61.1565418,325.388037 54.0408958,317.162528 C46.7299354,308.711243 19.1617093,296.795383 14.2540897,302.483334 C2.79775108,315.761278 2.58517124,342.584831 5.74271348,346.660577 C10.2528708,352.482275 37.8327107,374.000006 47.688869,374 Z" id="Oval-13" transform="translate(38.000000, 337.500000) rotate(-93.000000) translate(-38.000000, -337.500000) "></path>
            </g>
            <g id="corp" transform="translate(191.000000, 6.000000)" sketch:type="MSShapeGroup">
                <path d="M83.1761697,388 C118.659808,388 164.159657,341.425428 147.424978,294.502255 C130.690298,247.579083 118.659808,201.00451 83.1761697,201.00451 C47.6925309,201.00451 36.0000026,198.941047 36,283.085065 C35.9999985,334.722446 47.6925309,388 83.1761697,388 Z" id="Oval-5"></path>
                <path d="M30.3516886,128 C50.2221208,128 59,113.046348 59,88.6264079 C59,64.2064674 49.2219992,33 49.2219992,33 C49.2219992,33 49.0476445,41.6017846 30.3516881,60.3119329 C16.6825434,73.9914568 -0.000171480183,83.7837886 0,88.6264079 C0.000865124464,113.046348 10.4812564,128 30.3516886,128 Z" id="Oval-14"></path>
                <path d="M79.0986536,264 C111.06168,264 142.999999,141.730884 143,72.3004472 C143,49.8683455 121.779086,4.39759336 108.105446,1.06422959 C94.4318071,-2.26913655 92.9770872,3.1126049 82.1122389,5.11673105 C80.0231425,5.50208562 64.9936716,11.763758 55.8056321,19.741039 C46.8590245,27.5087052 50.297134,46.3840813 42.6219166,67.5975947 C37.4476895,81.8986267 28.561291,118.609224 28.0118916,146.015322 C27.7463364,159.262207 31.958608,167.7415 37.6201988,183.665947 C43.2817898,199.590394 47.1356274,264 79.0986536,264 Z" id="Oval-4"></path>
            </g>
            <g id="Right-Leg" transform="translate(0.000000, 283.000000)" sketch:type="MSShapeGroup">
                <path d="M120.694121,313 C138.866555,313 146,257.709557 146,192.275177 C146,126.840796 126.393032,87.4207056 115.183,63.0150114 C103.972969,38.6093128 88.1075646,35.6406973 88.1075649,66.2358255 C88.1075654,96.8309536 86.7350626,147.44088 93.7954246,183.62192 C111.45519,274.119928 102.521687,313 120.694121,313 Z" id="Oval-7" transform="translate(117.000000, 178.500000) rotate(-42.000000) translate(-117.000000, -178.500000) "></path>
                <path d="M189.82818,321.177315 C217.112737,321.177315 230.717986,343.991099 238.494934,316.247471 C246.271879,288.503843 222.799855,246.542399 193.65395,278.473993 C182.558438,290.629986 126,306.773005 126,321.177315 C126,335.581626 162.543623,321.177315 189.82818,321.177315 Z" id="Oval-9" transform="translate(183.000000, 299.500000) rotate(-50.000000) translate(-183.000000, -299.500000) "></path>
                <ellipse id="Oval-10" transform="translate(161.000000, 357.000000) rotate(-50.000000) translate(-161.000000, -357.000000) " cx="161" cy="357" rx="20" ry="8"></ellipse>
                <path d="M175.356538,237 C197.04812,237 202.570313,148.001665 202.570313,71.5349645 C202.570313,34.3516629 219.984515,-8.21262543 215.152946,-47.7370523 C210.048491,-89.4938021 209.318627,-86.5295006 182.135991,-95.4380575 C164.209096,-101.313236 141.53908,-99.0382562 134.049072,-67.5431276 C123.763732,-24.2937524 128.551458,30.1508776 134.049072,71.5349686 C143.550167,143.055851 153.664956,237 175.356538,237 Z" id="Oval-6" transform="translate(172.500000, 69.500000) rotate(81.000000) translate(-172.500000, -69.500000) "></path>
            </g>
            <g id="Right-arm" transform="translate(97.000000, 6.000000)" sketch:type="MSShapeGroup">
                <path d="M191.172421,207 C219.479945,207.000022 221.021015,127.78868 223.754361,62.0898273 C226.487707,-3.60902552 205.866999,0.0363724269 188.899439,0.0363724269 C171.931878,0.0363724269 160.786676,27.7991634 170.772952,92.4331377 C180.759228,157.067113 162.864896,206.999985 191.172421,207 Z" id="Oval-3"></path>
                <path d="M102.697202,236.97655 C110.480402,255.291488 142.682889,239.146573 145.61922,219.59828 C148.239673,202.152901 136.476666,168.392956 136.476666,142.860046 C136.476666,88.7164195 148.512045,59.2881555 134.346504,56.1887952 C120.180962,53.0894355 107.232737,88.4122545 102.697202,142.860045 C98.1616687,197.307836 94.9140026,218.661613 102.697202,236.97655 Z" id="Oval-8" transform="translate(122.000000, 151.000000) rotate(-61.000000) translate(-122.000000, -151.000000) "></path>
                <path d="M43.688869,121 C53.5450272,120.999994 70.1948288,96.8115448 66.4650442,93.6605755 C57.0839979,85.7353492 57.1565418,72.3880368 50.0408958,64.1625283 C42.7299354,55.7112428 15.1617093,43.7953828 10.2540897,49.4833338 C-1.20224892,62.761278 -1.41482876,89.5848309 1.74271348,93.6605771 C6.25287076,99.4822746 33.8327107,121.000006 43.688869,121 Z" id="Oval-13"></path>
            </g>
        </g>
    </g>
</svg>